<mxfile host="app.diagrams.net" modified="2024-03-12T04:42:00.847Z" agent="Mozilla/5.0 (Windows NT 10.0; Win64; x64) AppleWebKit/537.36 (KHTML, like Gecko) Chrome/122.0.0.0 Safari/537.36 Edg/122.0.0.0" etag="BB-geUMJ6E4h2cIh0mrz" version="24.0.5" type="github">
  <diagram id="C5RBs43oDa-KdzZeNtuy" name="Page-1">
    <mxGraphModel dx="1186" dy="571" grid="1" gridSize="10" guides="1" tooltips="1" connect="1" arrows="1" fold="1" page="1" pageScale="1" pageWidth="827" pageHeight="1169" math="0" shadow="0">
      <root>
        <mxCell id="WIyWlLk6GJQsqaUBKTNV-0" />
        <mxCell id="WIyWlLk6GJQsqaUBKTNV-1" parent="WIyWlLk6GJQsqaUBKTNV-0" />
        <mxCell id="YIzmQOWCm285_rni6knF-16" value="" style="edgeStyle=orthogonalEdgeStyle;rounded=0;orthogonalLoop=1;jettySize=auto;html=1;" parent="WIyWlLk6GJQsqaUBKTNV-1" source="YIzmQOWCm285_rni6knF-4" target="YIzmQOWCm285_rni6knF-6" edge="1">
          <mxGeometry relative="1" as="geometry" />
        </mxCell>
        <mxCell id="YIzmQOWCm285_rni6knF-4" value="Start" style="ellipse;whiteSpace=wrap;html=1;" parent="WIyWlLk6GJQsqaUBKTNV-1" vertex="1">
          <mxGeometry x="160" y="40" width="120" height="80" as="geometry" />
        </mxCell>
        <mxCell id="YIzmQOWCm285_rni6knF-5" value="End" style="ellipse;whiteSpace=wrap;html=1;" parent="WIyWlLk6GJQsqaUBKTNV-1" vertex="1">
          <mxGeometry x="160" y="510" width="120" height="80" as="geometry" />
        </mxCell>
        <mxCell id="YIzmQOWCm285_rni6knF-8" value="" style="edgeStyle=orthogonalEdgeStyle;rounded=0;orthogonalLoop=1;jettySize=auto;html=1;" parent="WIyWlLk6GJQsqaUBKTNV-1" source="YIzmQOWCm285_rni6knF-6" target="YIzmQOWCm285_rni6knF-7" edge="1">
          <mxGeometry relative="1" as="geometry" />
        </mxCell>
        <mxCell id="YIzmQOWCm285_rni6knF-6" value="&lt;font style=&quot;font-size: 11px;&quot;&gt;Computer Gesture&lt;/font&gt;" style="shape=parallelogram;perimeter=parallelogramPerimeter;whiteSpace=wrap;html=1;fixedSize=1;" parent="WIyWlLk6GJQsqaUBKTNV-1" vertex="1">
          <mxGeometry x="160" y="150" width="120" height="60" as="geometry" />
        </mxCell>
        <mxCell id="YIzmQOWCm285_rni6knF-10" value="" style="edgeStyle=orthogonalEdgeStyle;rounded=0;orthogonalLoop=1;jettySize=auto;html=1;" parent="WIyWlLk6GJQsqaUBKTNV-1" source="YIzmQOWCm285_rni6knF-7" target="YIzmQOWCm285_rni6knF-9" edge="1">
          <mxGeometry relative="1" as="geometry" />
        </mxCell>
        <mxCell id="YIzmQOWCm285_rni6knF-7" value="&lt;font style=&quot;font-size: 11px;&quot;&gt;Human Gesture&lt;/font&gt;" style="shape=parallelogram;perimeter=parallelogramPerimeter;whiteSpace=wrap;html=1;fixedSize=1;" parent="WIyWlLk6GJQsqaUBKTNV-1" vertex="1">
          <mxGeometry x="160" y="240" width="120" height="60" as="geometry" />
        </mxCell>
        <mxCell id="YIzmQOWCm285_rni6knF-38" value="" style="edgeStyle=orthogonalEdgeStyle;rounded=0;orthogonalLoop=1;jettySize=auto;html=1;" parent="WIyWlLk6GJQsqaUBKTNV-1" source="YIzmQOWCm285_rni6knF-9" target="YIzmQOWCm285_rni6knF-19" edge="1">
          <mxGeometry relative="1" as="geometry" />
        </mxCell>
        <mxCell id="YIzmQOWCm285_rni6knF-9" value="Determine Winner&amp;nbsp;" style="rounded=0;whiteSpace=wrap;html=1;" parent="WIyWlLk6GJQsqaUBKTNV-1" vertex="1">
          <mxGeometry x="160" y="330" width="120" height="60" as="geometry" />
        </mxCell>
        <mxCell id="YIzmQOWCm285_rni6knF-25" value="" style="edgeStyle=orthogonalEdgeStyle;rounded=0;orthogonalLoop=1;jettySize=auto;html=1;entryX=0.5;entryY=1;entryDx=0;entryDy=0;" parent="WIyWlLk6GJQsqaUBKTNV-1" source="YIzmQOWCm285_rni6knF-19" target="YIzmQOWCm285_rni6knF-32" edge="1">
          <mxGeometry relative="1" as="geometry">
            <mxPoint x="340" y="460" as="targetPoint" />
          </mxGeometry>
        </mxCell>
        <mxCell id="YIzmQOWCm285_rni6knF-31" value="Yes" style="edgeLabel;html=1;align=center;verticalAlign=middle;resizable=0;points=[];" parent="YIzmQOWCm285_rni6knF-25" vertex="1" connectable="0">
          <mxGeometry x="0.1317" y="1" relative="1" as="geometry">
            <mxPoint as="offset" />
          </mxGeometry>
        </mxCell>
        <mxCell id="YIzmQOWCm285_rni6knF-36" value="" style="edgeStyle=orthogonalEdgeStyle;rounded=0;orthogonalLoop=1;jettySize=auto;html=1;entryX=1;entryY=0.5;entryDx=0;entryDy=0;" parent="WIyWlLk6GJQsqaUBKTNV-1" source="YIzmQOWCm285_rni6knF-19" target="YIzmQOWCm285_rni6knF-28" edge="1">
          <mxGeometry relative="1" as="geometry">
            <Array as="points">
              <mxPoint x="360" y="450" />
            </Array>
          </mxGeometry>
        </mxCell>
        <mxCell id="YIzmQOWCm285_rni6knF-37" value="No" style="edgeLabel;html=1;align=center;verticalAlign=middle;resizable=0;points=[];" parent="YIzmQOWCm285_rni6knF-36" vertex="1" connectable="0">
          <mxGeometry x="-0.0412" y="-2" relative="1" as="geometry">
            <mxPoint x="-13" y="22" as="offset" />
          </mxGeometry>
        </mxCell>
        <mxCell id="YIzmQOWCm285_rni6knF-19" value="Tie?" style="rhombus;whiteSpace=wrap;html=1;" parent="WIyWlLk6GJQsqaUBKTNV-1" vertex="1">
          <mxGeometry x="320" y="320" width="80" height="80" as="geometry" />
        </mxCell>
        <mxCell id="YIzmQOWCm285_rni6knF-39" value="" style="edgeStyle=orthogonalEdgeStyle;rounded=0;orthogonalLoop=1;jettySize=auto;html=1;" parent="WIyWlLk6GJQsqaUBKTNV-1" source="YIzmQOWCm285_rni6knF-28" target="YIzmQOWCm285_rni6knF-5" edge="1">
          <mxGeometry relative="1" as="geometry" />
        </mxCell>
        <mxCell id="YIzmQOWCm285_rni6knF-28" value="&lt;font style=&quot;font-size: 11px;&quot;&gt;Show Winner&lt;/font&gt;" style="shape=parallelogram;perimeter=parallelogramPerimeter;whiteSpace=wrap;html=1;fixedSize=1;" parent="WIyWlLk6GJQsqaUBKTNV-1" vertex="1">
          <mxGeometry x="160" y="420" width="120" height="60" as="geometry" />
        </mxCell>
        <mxCell id="YIzmQOWCm285_rni6knF-33" value="" style="edgeStyle=orthogonalEdgeStyle;rounded=0;orthogonalLoop=1;jettySize=auto;html=1;" parent="WIyWlLk6GJQsqaUBKTNV-1" source="YIzmQOWCm285_rni6knF-32" target="YIzmQOWCm285_rni6knF-6" edge="1">
          <mxGeometry relative="1" as="geometry" />
        </mxCell>
        <mxCell id="YIzmQOWCm285_rni6knF-32" value="Play again" style="rhombus;whiteSpace=wrap;html=1;" parent="WIyWlLk6GJQsqaUBKTNV-1" vertex="1">
          <mxGeometry x="320" y="140" width="80" height="80" as="geometry" />
        </mxCell>
        <mxCell id="Y4Kcury6UL_7qUWewMS3-0" value="" style="edgeStyle=orthogonalEdgeStyle;rounded=0;orthogonalLoop=1;jettySize=auto;html=1;" parent="WIyWlLk6GJQsqaUBKTNV-1" source="Y4Kcury6UL_7qUWewMS3-1" target="Y4Kcury6UL_7qUWewMS3-4" edge="1">
          <mxGeometry relative="1" as="geometry" />
        </mxCell>
        <mxCell id="Y4Kcury6UL_7qUWewMS3-1" value="Start" style="ellipse;whiteSpace=wrap;html=1;" parent="WIyWlLk6GJQsqaUBKTNV-1" vertex="1">
          <mxGeometry x="790" y="40" width="120" height="80" as="geometry" />
        </mxCell>
        <mxCell id="Y4Kcury6UL_7qUWewMS3-2" value="End" style="ellipse;whiteSpace=wrap;html=1;" parent="WIyWlLk6GJQsqaUBKTNV-1" vertex="1">
          <mxGeometry x="790" y="510" width="120" height="80" as="geometry" />
        </mxCell>
        <mxCell id="Y4Kcury6UL_7qUWewMS3-3" value="" style="edgeStyle=orthogonalEdgeStyle;rounded=0;orthogonalLoop=1;jettySize=auto;html=1;" parent="WIyWlLk6GJQsqaUBKTNV-1" source="Y4Kcury6UL_7qUWewMS3-4" target="Y4Kcury6UL_7qUWewMS3-6" edge="1">
          <mxGeometry relative="1" as="geometry" />
        </mxCell>
        <mxCell id="Y4Kcury6UL_7qUWewMS3-4" value="&lt;font style=&quot;font-size: 11px;&quot;&gt;Computer Gesture&lt;/font&gt;" style="shape=parallelogram;perimeter=parallelogramPerimeter;whiteSpace=wrap;html=1;fixedSize=1;" parent="WIyWlLk6GJQsqaUBKTNV-1" vertex="1">
          <mxGeometry x="790" y="150" width="120" height="60" as="geometry" />
        </mxCell>
        <mxCell id="Y4Kcury6UL_7qUWewMS3-31" value="" style="edgeStyle=orthogonalEdgeStyle;rounded=0;orthogonalLoop=1;jettySize=auto;html=1;entryX=0.5;entryY=0;entryDx=0;entryDy=0;" parent="WIyWlLk6GJQsqaUBKTNV-1" source="Y4Kcury6UL_7qUWewMS3-6" target="Y4Kcury6UL_7qUWewMS3-18" edge="1">
          <mxGeometry relative="1" as="geometry">
            <Array as="points">
              <mxPoint x="770" y="270" />
              <mxPoint x="770" y="190" />
              <mxPoint x="710" y="190" />
            </Array>
          </mxGeometry>
        </mxCell>
        <mxCell id="Y4Kcury6UL_7qUWewMS3-6" value="&lt;font style=&quot;font-size: 11px;&quot;&gt;Human Gesture&lt;/font&gt;" style="shape=parallelogram;perimeter=parallelogramPerimeter;whiteSpace=wrap;html=1;fixedSize=1;" parent="WIyWlLk6GJQsqaUBKTNV-1" vertex="1">
          <mxGeometry x="790" y="240" width="120" height="60" as="geometry" />
        </mxCell>
        <mxCell id="Y4Kcury6UL_7qUWewMS3-7" value="" style="edgeStyle=orthogonalEdgeStyle;rounded=0;orthogonalLoop=1;jettySize=auto;html=1;" parent="WIyWlLk6GJQsqaUBKTNV-1" source="Y4Kcury6UL_7qUWewMS3-8" target="Y4Kcury6UL_7qUWewMS3-13" edge="1">
          <mxGeometry relative="1" as="geometry" />
        </mxCell>
        <mxCell id="Y4Kcury6UL_7qUWewMS3-8" value="Determine Winner&amp;nbsp;" style="rounded=0;whiteSpace=wrap;html=1;" parent="WIyWlLk6GJQsqaUBKTNV-1" vertex="1">
          <mxGeometry x="790" y="330" width="120" height="60" as="geometry" />
        </mxCell>
        <mxCell id="Y4Kcury6UL_7qUWewMS3-9" value="" style="edgeStyle=orthogonalEdgeStyle;rounded=0;orthogonalLoop=1;jettySize=auto;html=1;entryX=0.5;entryY=1;entryDx=0;entryDy=0;" parent="WIyWlLk6GJQsqaUBKTNV-1" source="Y4Kcury6UL_7qUWewMS3-13" target="Y4Kcury6UL_7qUWewMS3-17" edge="1">
          <mxGeometry relative="1" as="geometry">
            <mxPoint x="970" y="460" as="targetPoint" />
          </mxGeometry>
        </mxCell>
        <mxCell id="Y4Kcury6UL_7qUWewMS3-10" value="Yes" style="edgeLabel;html=1;align=center;verticalAlign=middle;resizable=0;points=[];" parent="Y4Kcury6UL_7qUWewMS3-9" vertex="1" connectable="0">
          <mxGeometry x="0.1317" y="1" relative="1" as="geometry">
            <mxPoint as="offset" />
          </mxGeometry>
        </mxCell>
        <mxCell id="Y4Kcury6UL_7qUWewMS3-11" value="" style="edgeStyle=orthogonalEdgeStyle;rounded=0;orthogonalLoop=1;jettySize=auto;html=1;entryX=1;entryY=0.5;entryDx=0;entryDy=0;" parent="WIyWlLk6GJQsqaUBKTNV-1" source="Y4Kcury6UL_7qUWewMS3-13" target="Y4Kcury6UL_7qUWewMS3-15" edge="1">
          <mxGeometry relative="1" as="geometry">
            <Array as="points">
              <mxPoint x="990" y="450" />
            </Array>
          </mxGeometry>
        </mxCell>
        <mxCell id="Y4Kcury6UL_7qUWewMS3-12" value="No" style="edgeLabel;html=1;align=center;verticalAlign=middle;resizable=0;points=[];" parent="Y4Kcury6UL_7qUWewMS3-11" vertex="1" connectable="0">
          <mxGeometry x="-0.0412" y="-2" relative="1" as="geometry">
            <mxPoint x="-13" y="22" as="offset" />
          </mxGeometry>
        </mxCell>
        <mxCell id="Y4Kcury6UL_7qUWewMS3-13" value="Tie?" style="rhombus;whiteSpace=wrap;html=1;" parent="WIyWlLk6GJQsqaUBKTNV-1" vertex="1">
          <mxGeometry x="950" y="320" width="80" height="80" as="geometry" />
        </mxCell>
        <mxCell id="Y4Kcury6UL_7qUWewMS3-14" value="" style="edgeStyle=orthogonalEdgeStyle;rounded=0;orthogonalLoop=1;jettySize=auto;html=1;" parent="WIyWlLk6GJQsqaUBKTNV-1" source="Y4Kcury6UL_7qUWewMS3-15" target="Y4Kcury6UL_7qUWewMS3-2" edge="1">
          <mxGeometry relative="1" as="geometry" />
        </mxCell>
        <mxCell id="Y4Kcury6UL_7qUWewMS3-15" value="&lt;font style=&quot;font-size: 11px;&quot;&gt;Show Winner&lt;/font&gt;" style="shape=parallelogram;perimeter=parallelogramPerimeter;whiteSpace=wrap;html=1;fixedSize=1;" parent="WIyWlLk6GJQsqaUBKTNV-1" vertex="1">
          <mxGeometry x="790" y="420" width="120" height="60" as="geometry" />
        </mxCell>
        <mxCell id="Y4Kcury6UL_7qUWewMS3-16" value="" style="edgeStyle=orthogonalEdgeStyle;rounded=0;orthogonalLoop=1;jettySize=auto;html=1;" parent="WIyWlLk6GJQsqaUBKTNV-1" source="Y4Kcury6UL_7qUWewMS3-17" target="Y4Kcury6UL_7qUWewMS3-4" edge="1">
          <mxGeometry relative="1" as="geometry" />
        </mxCell>
        <mxCell id="Y4Kcury6UL_7qUWewMS3-17" value="Play again" style="rhombus;whiteSpace=wrap;html=1;" parent="WIyWlLk6GJQsqaUBKTNV-1" vertex="1">
          <mxGeometry x="950" y="140" width="80" height="80" as="geometry" />
        </mxCell>
        <mxCell id="Y4Kcury6UL_7qUWewMS3-25" value="" style="edgeStyle=orthogonalEdgeStyle;rounded=0;orthogonalLoop=1;jettySize=auto;html=1;entryX=0;entryY=0.5;entryDx=0;entryDy=0;" parent="WIyWlLk6GJQsqaUBKTNV-1" source="Y4Kcury6UL_7qUWewMS3-18" target="Y4Kcury6UL_7qUWewMS3-8" edge="1">
          <mxGeometry relative="1" as="geometry">
            <mxPoint x="720" y="360" as="targetPoint" />
            <Array as="points">
              <mxPoint x="710" y="360" />
            </Array>
          </mxGeometry>
        </mxCell>
        <mxCell id="Y4Kcury6UL_7qUWewMS3-26" value="Yes" style="edgeLabel;html=1;align=center;verticalAlign=middle;resizable=0;points=[];" parent="Y4Kcury6UL_7qUWewMS3-25" vertex="1" connectable="0">
          <mxGeometry x="-0.4312" relative="1" as="geometry">
            <mxPoint as="offset" />
          </mxGeometry>
        </mxCell>
        <mxCell id="Y4Kcury6UL_7qUWewMS3-28" value="" style="edgeStyle=orthogonalEdgeStyle;rounded=0;orthogonalLoop=1;jettySize=auto;html=1;entryX=0;entryY=0.75;entryDx=0;entryDy=0;" parent="WIyWlLk6GJQsqaUBKTNV-1" source="Y4Kcury6UL_7qUWewMS3-18" target="Y4Kcury6UL_7qUWewMS3-6" edge="1">
          <mxGeometry relative="1" as="geometry">
            <mxPoint x="760" y="300" as="targetPoint" />
            <Array as="points">
              <mxPoint x="720" y="284" />
            </Array>
          </mxGeometry>
        </mxCell>
        <mxCell id="Y4Kcury6UL_7qUWewMS3-30" value="No" style="edgeLabel;html=1;align=center;verticalAlign=middle;resizable=0;points=[];" parent="Y4Kcury6UL_7qUWewMS3-28" vertex="1" connectable="0">
          <mxGeometry x="-0.1107" y="1" relative="1" as="geometry">
            <mxPoint as="offset" />
          </mxGeometry>
        </mxCell>
        <mxCell id="Y4Kcury6UL_7qUWewMS3-18" value="Selection&lt;div&gt;Valid&lt;/div&gt;" style="rhombus;whiteSpace=wrap;html=1;" parent="WIyWlLk6GJQsqaUBKTNV-1" vertex="1">
          <mxGeometry x="670" y="230" width="80" height="80" as="geometry" />
        </mxCell>
        <mxCell id="Y4Kcury6UL_7qUWewMS3-32" value="" style="edgeStyle=orthogonalEdgeStyle;rounded=0;orthogonalLoop=1;jettySize=auto;html=1;" parent="WIyWlLk6GJQsqaUBKTNV-1" source="Y4Kcury6UL_7qUWewMS3-33" target="Y4Kcury6UL_7qUWewMS3-36" edge="1">
          <mxGeometry relative="1" as="geometry" />
        </mxCell>
        <mxCell id="Y4Kcury6UL_7qUWewMS3-33" value="Start" style="ellipse;whiteSpace=wrap;html=1;" parent="WIyWlLk6GJQsqaUBKTNV-1" vertex="1">
          <mxGeometry x="160" y="680" width="120" height="80" as="geometry" />
        </mxCell>
        <mxCell id="Y4Kcury6UL_7qUWewMS3-34" value="End" style="ellipse;whiteSpace=wrap;html=1;" parent="WIyWlLk6GJQsqaUBKTNV-1" vertex="1">
          <mxGeometry x="160" y="1240" width="120" height="80" as="geometry" />
        </mxCell>
        <mxCell id="Y4Kcury6UL_7qUWewMS3-35" value="" style="edgeStyle=orthogonalEdgeStyle;rounded=0;orthogonalLoop=1;jettySize=auto;html=1;" parent="WIyWlLk6GJQsqaUBKTNV-1" source="Y4Kcury6UL_7qUWewMS3-36" target="Y4Kcury6UL_7qUWewMS3-38" edge="1">
          <mxGeometry relative="1" as="geometry" />
        </mxCell>
        <mxCell id="Y4Kcury6UL_7qUWewMS3-36" value="&lt;font style=&quot;font-size: 11px;&quot;&gt;Computer Gesture&lt;/font&gt;" style="shape=parallelogram;perimeter=parallelogramPerimeter;whiteSpace=wrap;html=1;fixedSize=1;" parent="WIyWlLk6GJQsqaUBKTNV-1" vertex="1">
          <mxGeometry x="160" y="790" width="120" height="60" as="geometry" />
        </mxCell>
        <mxCell id="Y4Kcury6UL_7qUWewMS3-37" value="" style="edgeStyle=orthogonalEdgeStyle;rounded=0;orthogonalLoop=1;jettySize=auto;html=1;entryX=0.5;entryY=0;entryDx=0;entryDy=0;" parent="WIyWlLk6GJQsqaUBKTNV-1" source="Y4Kcury6UL_7qUWewMS3-38" target="Y4Kcury6UL_7qUWewMS3-54" edge="1">
          <mxGeometry relative="1" as="geometry">
            <Array as="points">
              <mxPoint x="140" y="910" />
              <mxPoint x="140" y="830" />
              <mxPoint x="80" y="830" />
            </Array>
          </mxGeometry>
        </mxCell>
        <mxCell id="Y4Kcury6UL_7qUWewMS3-38" value="&lt;font style=&quot;font-size: 11px;&quot;&gt;Human Gesture&lt;/font&gt;" style="shape=parallelogram;perimeter=parallelogramPerimeter;whiteSpace=wrap;html=1;fixedSize=1;" parent="WIyWlLk6GJQsqaUBKTNV-1" vertex="1">
          <mxGeometry x="160" y="880" width="120" height="60" as="geometry" />
        </mxCell>
        <mxCell id="Y4Kcury6UL_7qUWewMS3-39" value="" style="edgeStyle=orthogonalEdgeStyle;rounded=0;orthogonalLoop=1;jettySize=auto;html=1;" parent="WIyWlLk6GJQsqaUBKTNV-1" source="Y4Kcury6UL_7qUWewMS3-40" target="Y4Kcury6UL_7qUWewMS3-45" edge="1">
          <mxGeometry relative="1" as="geometry" />
        </mxCell>
        <mxCell id="Y4Kcury6UL_7qUWewMS3-40" value="Determine Winner&amp;nbsp;" style="rounded=0;whiteSpace=wrap;html=1;" parent="WIyWlLk6GJQsqaUBKTNV-1" vertex="1">
          <mxGeometry x="160" y="970" width="120" height="60" as="geometry" />
        </mxCell>
        <mxCell id="Y4Kcury6UL_7qUWewMS3-41" value="" style="edgeStyle=orthogonalEdgeStyle;rounded=0;orthogonalLoop=1;jettySize=auto;html=1;entryX=0.5;entryY=1;entryDx=0;entryDy=0;" parent="WIyWlLk6GJQsqaUBKTNV-1" source="Y4Kcury6UL_7qUWewMS3-45" target="Y4Kcury6UL_7qUWewMS3-49" edge="1">
          <mxGeometry relative="1" as="geometry">
            <mxPoint x="340" y="1100" as="targetPoint" />
          </mxGeometry>
        </mxCell>
        <mxCell id="Y4Kcury6UL_7qUWewMS3-42" value="Yes" style="edgeLabel;html=1;align=center;verticalAlign=middle;resizable=0;points=[];" parent="Y4Kcury6UL_7qUWewMS3-41" vertex="1" connectable="0">
          <mxGeometry x="0.1317" y="1" relative="1" as="geometry">
            <mxPoint as="offset" />
          </mxGeometry>
        </mxCell>
        <mxCell id="Y4Kcury6UL_7qUWewMS3-43" value="" style="edgeStyle=orthogonalEdgeStyle;rounded=0;orthogonalLoop=1;jettySize=auto;html=1;entryX=1;entryY=0.5;entryDx=0;entryDy=0;" parent="WIyWlLk6GJQsqaUBKTNV-1" source="Y4Kcury6UL_7qUWewMS3-45" target="Y4Kcury6UL_7qUWewMS3-56" edge="1">
          <mxGeometry relative="1" as="geometry">
            <Array as="points">
              <mxPoint x="360" y="1090" />
            </Array>
          </mxGeometry>
        </mxCell>
        <mxCell id="Y4Kcury6UL_7qUWewMS3-58" value="No" style="edgeLabel;html=1;align=center;verticalAlign=middle;resizable=0;points=[];" parent="Y4Kcury6UL_7qUWewMS3-43" vertex="1" connectable="0">
          <mxGeometry x="-0.1802" y="3" relative="1" as="geometry">
            <mxPoint x="-27" y="-3" as="offset" />
          </mxGeometry>
        </mxCell>
        <mxCell id="Y4Kcury6UL_7qUWewMS3-45" value="Tie?" style="rhombus;whiteSpace=wrap;html=1;" parent="WIyWlLk6GJQsqaUBKTNV-1" vertex="1">
          <mxGeometry x="320" y="960" width="80" height="80" as="geometry" />
        </mxCell>
        <mxCell id="Y4Kcury6UL_7qUWewMS3-46" value="" style="edgeStyle=orthogonalEdgeStyle;rounded=0;orthogonalLoop=1;jettySize=auto;html=1;" parent="WIyWlLk6GJQsqaUBKTNV-1" source="Y4Kcury6UL_7qUWewMS3-47" target="Y4Kcury6UL_7qUWewMS3-34" edge="1">
          <mxGeometry relative="1" as="geometry" />
        </mxCell>
        <mxCell id="Y4Kcury6UL_7qUWewMS3-47" value="&lt;font style=&quot;font-size: 11px;&quot;&gt;Show Winner&lt;/font&gt;" style="shape=parallelogram;perimeter=parallelogramPerimeter;whiteSpace=wrap;html=1;fixedSize=1;" parent="WIyWlLk6GJQsqaUBKTNV-1" vertex="1">
          <mxGeometry x="160" y="1150" width="120" height="60" as="geometry" />
        </mxCell>
        <mxCell id="Y4Kcury6UL_7qUWewMS3-48" value="" style="edgeStyle=orthogonalEdgeStyle;rounded=0;orthogonalLoop=1;jettySize=auto;html=1;" parent="WIyWlLk6GJQsqaUBKTNV-1" source="Y4Kcury6UL_7qUWewMS3-49" target="Y4Kcury6UL_7qUWewMS3-36" edge="1">
          <mxGeometry relative="1" as="geometry" />
        </mxCell>
        <mxCell id="Y4Kcury6UL_7qUWewMS3-49" value="Play again" style="rhombus;whiteSpace=wrap;html=1;" parent="WIyWlLk6GJQsqaUBKTNV-1" vertex="1">
          <mxGeometry x="320" y="780" width="80" height="80" as="geometry" />
        </mxCell>
        <mxCell id="Y4Kcury6UL_7qUWewMS3-50" value="" style="edgeStyle=orthogonalEdgeStyle;rounded=0;orthogonalLoop=1;jettySize=auto;html=1;entryX=0;entryY=0.5;entryDx=0;entryDy=0;" parent="WIyWlLk6GJQsqaUBKTNV-1" source="Y4Kcury6UL_7qUWewMS3-54" target="Y4Kcury6UL_7qUWewMS3-40" edge="1">
          <mxGeometry relative="1" as="geometry">
            <mxPoint x="90" y="1000" as="targetPoint" />
            <Array as="points">
              <mxPoint x="80" y="1000" />
            </Array>
          </mxGeometry>
        </mxCell>
        <mxCell id="Y4Kcury6UL_7qUWewMS3-51" value="Yes" style="edgeLabel;html=1;align=center;verticalAlign=middle;resizable=0;points=[];" parent="Y4Kcury6UL_7qUWewMS3-50" vertex="1" connectable="0">
          <mxGeometry x="-0.4312" relative="1" as="geometry">
            <mxPoint as="offset" />
          </mxGeometry>
        </mxCell>
        <mxCell id="Y4Kcury6UL_7qUWewMS3-52" value="" style="edgeStyle=orthogonalEdgeStyle;rounded=0;orthogonalLoop=1;jettySize=auto;html=1;entryX=0;entryY=0.75;entryDx=0;entryDy=0;" parent="WIyWlLk6GJQsqaUBKTNV-1" source="Y4Kcury6UL_7qUWewMS3-54" target="Y4Kcury6UL_7qUWewMS3-38" edge="1">
          <mxGeometry relative="1" as="geometry">
            <mxPoint x="130" y="940" as="targetPoint" />
            <Array as="points">
              <mxPoint x="90" y="924" />
            </Array>
          </mxGeometry>
        </mxCell>
        <mxCell id="Y4Kcury6UL_7qUWewMS3-53" value="No" style="edgeLabel;html=1;align=center;verticalAlign=middle;resizable=0;points=[];" parent="Y4Kcury6UL_7qUWewMS3-52" vertex="1" connectable="0">
          <mxGeometry x="-0.1107" y="1" relative="1" as="geometry">
            <mxPoint as="offset" />
          </mxGeometry>
        </mxCell>
        <mxCell id="Y4Kcury6UL_7qUWewMS3-54" value="Selection&lt;div&gt;Valid&lt;/div&gt;" style="rhombus;whiteSpace=wrap;html=1;" parent="WIyWlLk6GJQsqaUBKTNV-1" vertex="1">
          <mxGeometry x="40" y="870" width="80" height="80" as="geometry" />
        </mxCell>
        <mxCell id="Y4Kcury6UL_7qUWewMS3-57" value="" style="edgeStyle=orthogonalEdgeStyle;rounded=0;orthogonalLoop=1;jettySize=auto;html=1;" parent="WIyWlLk6GJQsqaUBKTNV-1" source="Y4Kcury6UL_7qUWewMS3-56" target="Y4Kcury6UL_7qUWewMS3-47" edge="1">
          <mxGeometry relative="1" as="geometry" />
        </mxCell>
        <mxCell id="Y4Kcury6UL_7qUWewMS3-56" value="Change Number to Gesture" style="rounded=0;whiteSpace=wrap;html=1;" parent="WIyWlLk6GJQsqaUBKTNV-1" vertex="1">
          <mxGeometry x="160" y="1060" width="120" height="60" as="geometry" />
        </mxCell>
        <mxCell id="Y4Kcury6UL_7qUWewMS3-59" value="" style="edgeStyle=orthogonalEdgeStyle;rounded=0;orthogonalLoop=1;jettySize=auto;html=1;" parent="WIyWlLk6GJQsqaUBKTNV-1" source="Y4Kcury6UL_7qUWewMS3-60" target="Y4Kcury6UL_7qUWewMS3-63" edge="1">
          <mxGeometry relative="1" as="geometry" />
        </mxCell>
        <mxCell id="Y4Kcury6UL_7qUWewMS3-60" value="Start" style="ellipse;whiteSpace=wrap;html=1;" parent="WIyWlLk6GJQsqaUBKTNV-1" vertex="1">
          <mxGeometry x="790" y="680" width="120" height="80" as="geometry" />
        </mxCell>
        <mxCell id="Y4Kcury6UL_7qUWewMS3-61" value="End" style="ellipse;whiteSpace=wrap;html=1;" parent="WIyWlLk6GJQsqaUBKTNV-1" vertex="1">
          <mxGeometry x="790" y="1440" width="120" height="80" as="geometry" />
        </mxCell>
        <mxCell id="Y4Kcury6UL_7qUWewMS3-62" value="" style="edgeStyle=orthogonalEdgeStyle;rounded=0;orthogonalLoop=1;jettySize=auto;html=1;" parent="WIyWlLk6GJQsqaUBKTNV-1" source="Y4Kcury6UL_7qUWewMS3-63" target="Y4Kcury6UL_7qUWewMS3-65" edge="1">
          <mxGeometry relative="1" as="geometry" />
        </mxCell>
        <mxCell id="Y4Kcury6UL_7qUWewMS3-63" value="&lt;font style=&quot;font-size: 11px;&quot;&gt;Computer Gesture&lt;/font&gt;" style="shape=parallelogram;perimeter=parallelogramPerimeter;whiteSpace=wrap;html=1;fixedSize=1;" parent="WIyWlLk6GJQsqaUBKTNV-1" vertex="1">
          <mxGeometry x="790" y="790" width="120" height="60" as="geometry" />
        </mxCell>
        <mxCell id="Y4Kcury6UL_7qUWewMS3-64" value="" style="edgeStyle=orthogonalEdgeStyle;rounded=0;orthogonalLoop=1;jettySize=auto;html=1;entryX=0.5;entryY=0;entryDx=0;entryDy=0;" parent="WIyWlLk6GJQsqaUBKTNV-1" source="Y4Kcury6UL_7qUWewMS3-65" target="Y4Kcury6UL_7qUWewMS3-81" edge="1">
          <mxGeometry relative="1" as="geometry">
            <Array as="points">
              <mxPoint x="770" y="910" />
              <mxPoint x="770" y="830" />
              <mxPoint x="710" y="830" />
            </Array>
          </mxGeometry>
        </mxCell>
        <mxCell id="Y4Kcury6UL_7qUWewMS3-65" value="&lt;font style=&quot;font-size: 11px;&quot;&gt;Human Gesture&lt;/font&gt;" style="shape=parallelogram;perimeter=parallelogramPerimeter;whiteSpace=wrap;html=1;fixedSize=1;" parent="WIyWlLk6GJQsqaUBKTNV-1" vertex="1">
          <mxGeometry x="790" y="880" width="120" height="60" as="geometry" />
        </mxCell>
        <mxCell id="Y4Kcury6UL_7qUWewMS3-66" value="" style="edgeStyle=orthogonalEdgeStyle;rounded=0;orthogonalLoop=1;jettySize=auto;html=1;" parent="WIyWlLk6GJQsqaUBKTNV-1" source="Y4Kcury6UL_7qUWewMS3-67" target="Y4Kcury6UL_7qUWewMS3-72" edge="1">
          <mxGeometry relative="1" as="geometry" />
        </mxCell>
        <mxCell id="Y4Kcury6UL_7qUWewMS3-67" value="Determine Winner&amp;nbsp;" style="rounded=0;whiteSpace=wrap;html=1;" parent="WIyWlLk6GJQsqaUBKTNV-1" vertex="1">
          <mxGeometry x="790" y="970" width="120" height="60" as="geometry" />
        </mxCell>
        <mxCell id="Y4Kcury6UL_7qUWewMS3-68" value="" style="edgeStyle=orthogonalEdgeStyle;rounded=0;orthogonalLoop=1;jettySize=auto;html=1;entryX=0.5;entryY=1;entryDx=0;entryDy=0;" parent="WIyWlLk6GJQsqaUBKTNV-1" source="Y4Kcury6UL_7qUWewMS3-72" target="Y4Kcury6UL_7qUWewMS3-76" edge="1">
          <mxGeometry relative="1" as="geometry">
            <mxPoint x="970" y="1100" as="targetPoint" />
          </mxGeometry>
        </mxCell>
        <mxCell id="Y4Kcury6UL_7qUWewMS3-69" value="Yes" style="edgeLabel;html=1;align=center;verticalAlign=middle;resizable=0;points=[];" parent="Y4Kcury6UL_7qUWewMS3-68" vertex="1" connectable="0">
          <mxGeometry x="0.1317" y="1" relative="1" as="geometry">
            <mxPoint as="offset" />
          </mxGeometry>
        </mxCell>
        <mxCell id="Y4Kcury6UL_7qUWewMS3-70" value="" style="edgeStyle=orthogonalEdgeStyle;rounded=0;orthogonalLoop=1;jettySize=auto;html=1;entryX=1;entryY=0.5;entryDx=0;entryDy=0;" parent="WIyWlLk6GJQsqaUBKTNV-1" source="Y4Kcury6UL_7qUWewMS3-72" target="Y4Kcury6UL_7qUWewMS3-83" edge="1">
          <mxGeometry relative="1" as="geometry">
            <Array as="points">
              <mxPoint x="990" y="1090" />
            </Array>
          </mxGeometry>
        </mxCell>
        <mxCell id="Y4Kcury6UL_7qUWewMS3-71" value="No" style="edgeLabel;html=1;align=center;verticalAlign=middle;resizable=0;points=[];" parent="Y4Kcury6UL_7qUWewMS3-70" vertex="1" connectable="0">
          <mxGeometry x="-0.1802" y="3" relative="1" as="geometry">
            <mxPoint x="-27" y="-3" as="offset" />
          </mxGeometry>
        </mxCell>
        <mxCell id="Y4Kcury6UL_7qUWewMS3-72" value="Tie?" style="rhombus;whiteSpace=wrap;html=1;" parent="WIyWlLk6GJQsqaUBKTNV-1" vertex="1">
          <mxGeometry x="950" y="960" width="80" height="80" as="geometry" />
        </mxCell>
        <mxCell id="Y4Kcury6UL_7qUWewMS3-87" value="" style="edgeStyle=orthogonalEdgeStyle;rounded=0;orthogonalLoop=1;jettySize=auto;html=1;" parent="WIyWlLk6GJQsqaUBKTNV-1" source="Y4Kcury6UL_7qUWewMS3-74" target="Y4Kcury6UL_7qUWewMS3-84" edge="1">
          <mxGeometry relative="1" as="geometry" />
        </mxCell>
        <mxCell id="Y4Kcury6UL_7qUWewMS3-74" value="&lt;font style=&quot;font-size: 11px;&quot;&gt;Show Round Winner&lt;/font&gt;" style="shape=parallelogram;perimeter=parallelogramPerimeter;whiteSpace=wrap;html=1;fixedSize=1;" parent="WIyWlLk6GJQsqaUBKTNV-1" vertex="1">
          <mxGeometry x="790" y="1150" width="120" height="60" as="geometry" />
        </mxCell>
        <mxCell id="Y4Kcury6UL_7qUWewMS3-75" value="" style="edgeStyle=orthogonalEdgeStyle;rounded=0;orthogonalLoop=1;jettySize=auto;html=1;" parent="WIyWlLk6GJQsqaUBKTNV-1" source="Y4Kcury6UL_7qUWewMS3-76" target="Y4Kcury6UL_7qUWewMS3-63" edge="1">
          <mxGeometry relative="1" as="geometry" />
        </mxCell>
        <mxCell id="Y4Kcury6UL_7qUWewMS3-76" value="Play again" style="rhombus;whiteSpace=wrap;html=1;" parent="WIyWlLk6GJQsqaUBKTNV-1" vertex="1">
          <mxGeometry x="950" y="780" width="80" height="80" as="geometry" />
        </mxCell>
        <mxCell id="Y4Kcury6UL_7qUWewMS3-77" value="" style="edgeStyle=orthogonalEdgeStyle;rounded=0;orthogonalLoop=1;jettySize=auto;html=1;entryX=0;entryY=0.5;entryDx=0;entryDy=0;" parent="WIyWlLk6GJQsqaUBKTNV-1" source="Y4Kcury6UL_7qUWewMS3-81" target="Y4Kcury6UL_7qUWewMS3-67" edge="1">
          <mxGeometry relative="1" as="geometry">
            <mxPoint x="720" y="1000" as="targetPoint" />
            <Array as="points">
              <mxPoint x="710" y="1000" />
            </Array>
          </mxGeometry>
        </mxCell>
        <mxCell id="Y4Kcury6UL_7qUWewMS3-78" value="Yes" style="edgeLabel;html=1;align=center;verticalAlign=middle;resizable=0;points=[];" parent="Y4Kcury6UL_7qUWewMS3-77" vertex="1" connectable="0">
          <mxGeometry x="-0.4312" relative="1" as="geometry">
            <mxPoint as="offset" />
          </mxGeometry>
        </mxCell>
        <mxCell id="Y4Kcury6UL_7qUWewMS3-79" value="" style="edgeStyle=orthogonalEdgeStyle;rounded=0;orthogonalLoop=1;jettySize=auto;html=1;entryX=0;entryY=0.75;entryDx=0;entryDy=0;" parent="WIyWlLk6GJQsqaUBKTNV-1" source="Y4Kcury6UL_7qUWewMS3-81" target="Y4Kcury6UL_7qUWewMS3-65" edge="1">
          <mxGeometry relative="1" as="geometry">
            <mxPoint x="760" y="940" as="targetPoint" />
            <Array as="points">
              <mxPoint x="720" y="924" />
            </Array>
          </mxGeometry>
        </mxCell>
        <mxCell id="Y4Kcury6UL_7qUWewMS3-80" value="No" style="edgeLabel;html=1;align=center;verticalAlign=middle;resizable=0;points=[];" parent="Y4Kcury6UL_7qUWewMS3-79" vertex="1" connectable="0">
          <mxGeometry x="-0.1107" y="1" relative="1" as="geometry">
            <mxPoint as="offset" />
          </mxGeometry>
        </mxCell>
        <mxCell id="Y4Kcury6UL_7qUWewMS3-81" value="Selection&lt;div&gt;Valid&lt;/div&gt;" style="rhombus;whiteSpace=wrap;html=1;" parent="WIyWlLk6GJQsqaUBKTNV-1" vertex="1">
          <mxGeometry x="670" y="870" width="80" height="80" as="geometry" />
        </mxCell>
        <mxCell id="Y4Kcury6UL_7qUWewMS3-85" value="" style="edgeStyle=orthogonalEdgeStyle;rounded=0;orthogonalLoop=1;jettySize=auto;html=1;" parent="WIyWlLk6GJQsqaUBKTNV-1" source="Y4Kcury6UL_7qUWewMS3-83" target="Y4Kcury6UL_7qUWewMS3-74" edge="1">
          <mxGeometry relative="1" as="geometry" />
        </mxCell>
        <mxCell id="Y4Kcury6UL_7qUWewMS3-83" value="Change Number to Gesture" style="rounded=0;whiteSpace=wrap;html=1;" parent="WIyWlLk6GJQsqaUBKTNV-1" vertex="1">
          <mxGeometry x="790" y="1060" width="120" height="60" as="geometry" />
        </mxCell>
        <mxCell id="Y4Kcury6UL_7qUWewMS3-90" value="" style="edgeStyle=orthogonalEdgeStyle;rounded=0;orthogonalLoop=1;jettySize=auto;html=1;" parent="WIyWlLk6GJQsqaUBKTNV-1" source="Y4Kcury6UL_7qUWewMS3-84" target="Y4Kcury6UL_7qUWewMS3-89" edge="1">
          <mxGeometry relative="1" as="geometry" />
        </mxCell>
        <mxCell id="Y4Kcury6UL_7qUWewMS3-92" value="Yes" style="edgeLabel;html=1;align=center;verticalAlign=middle;resizable=0;points=[];" parent="Y4Kcury6UL_7qUWewMS3-90" vertex="1" connectable="0">
          <mxGeometry x="0.1543" y="2" relative="1" as="geometry">
            <mxPoint as="offset" />
          </mxGeometry>
        </mxCell>
        <mxCell id="Y4Kcury6UL_7qUWewMS3-94" value="" style="edgeStyle=orthogonalEdgeStyle;rounded=0;orthogonalLoop=1;jettySize=auto;html=1;entryX=1;entryY=0.5;entryDx=0;entryDy=0;" parent="WIyWlLk6GJQsqaUBKTNV-1" source="Y4Kcury6UL_7qUWewMS3-84" target="Y4Kcury6UL_7qUWewMS3-76" edge="1">
          <mxGeometry relative="1" as="geometry">
            <mxPoint x="950" y="1280" as="targetPoint" />
          </mxGeometry>
        </mxCell>
        <mxCell id="Y4Kcury6UL_7qUWewMS3-95" value="No" style="edgeLabel;html=1;align=center;verticalAlign=middle;resizable=0;points=[];" parent="Y4Kcury6UL_7qUWewMS3-94" vertex="1" connectable="0">
          <mxGeometry x="0.2107" y="-1" relative="1" as="geometry">
            <mxPoint as="offset" />
          </mxGeometry>
        </mxCell>
        <mxCell id="Y4Kcury6UL_7qUWewMS3-84" value="3 Rounds or Score of 2" style="rhombus;whiteSpace=wrap;html=1;" parent="WIyWlLk6GJQsqaUBKTNV-1" vertex="1">
          <mxGeometry x="810" y="1240" width="80" height="80" as="geometry" />
        </mxCell>
        <mxCell id="Y4Kcury6UL_7qUWewMS3-91" value="" style="edgeStyle=orthogonalEdgeStyle;rounded=0;orthogonalLoop=1;jettySize=auto;html=1;" parent="WIyWlLk6GJQsqaUBKTNV-1" source="Y4Kcury6UL_7qUWewMS3-89" target="Y4Kcury6UL_7qUWewMS3-61" edge="1">
          <mxGeometry relative="1" as="geometry" />
        </mxCell>
        <mxCell id="Y4Kcury6UL_7qUWewMS3-89" value="&lt;font style=&quot;font-size: 11px;&quot;&gt;Show Game Winner&lt;/font&gt;" style="shape=parallelogram;perimeter=parallelogramPerimeter;whiteSpace=wrap;html=1;fixedSize=1;" parent="WIyWlLk6GJQsqaUBKTNV-1" vertex="1">
          <mxGeometry x="790" y="1350" width="120" height="60" as="geometry" />
        </mxCell>
      </root>
    </mxGraphModel>
  </diagram>
</mxfile>
